<?xml version="1.0" encoding="UTF-8" standalone="no"?>
<!DOCTYPE svg PUBLIC "-//W3C//DTD SVG 1.1//EN"
 "http://www.w3.org/Graphics/SVG/1.1/DTD/svg11.dtd">
<!-- Generated by graphviz version 5.0.0 (20220707.1540)
 -->
<!-- Pages: 1 -->
<svg width="278pt" height="260pt"
 viewBox="0.00 0.00 278.00 260.00" xmlns="http://www.w3.org/2000/svg" xmlns:xlink="http://www.w3.org/1999/xlink">
<g id="graph0" class="graph" transform="scale(1 1) rotate(0) translate(4 256)">
<polygon fill="white" stroke="transparent" points="-4,4 -4,-256 274,-256 274,4 -4,4"/>
<!-- 256 -->
<g id="node1" class="node">
<title>256</title>
<ellipse fill="none" stroke="black" cx="135" cy="-234" rx="27" ry="18"/>
<text text-anchor="middle" x="135" y="-230.3" font-family="Times New Roman,serif" font-size="14.00">256</text>
</g>
<!-- 128 -->
<g id="node2" class="node">
<title>128</title>
<ellipse fill="none" stroke="black" cx="99" cy="-162" rx="27" ry="18"/>
<text text-anchor="middle" x="99" y="-158.3" font-family="Times New Roman,serif" font-size="14.00">128</text>
</g>
<!-- 256&#45;&#45;128 -->
<g id="edge1" class="edge">
<title>256&#45;&#45;128</title>
<path fill="none" stroke="black" d="M121.99,-207.7C118.7,-201.3 115.17,-194.44 111.88,-188.05"/>
<polygon fill="black" stroke="black" points="123.54,-218.37 122.08,-207.87 129.76,-215.16 123.54,-218.37"/>
<polygon fill="black" stroke="black" points="107.3,-179.15 115.88,-185.98 109.59,-183.59 111.88,-188.04 111.88,-188.04 111.88,-188.04 109.59,-183.59 107.88,-190.1 107.3,-179.15 107.3,-179.15"/>
<text text-anchor="middle" x="95.39" y="-193.94" font-family="Times New Roman,serif" font-size="14.00">Head</text>
<text text-anchor="middle" x="138.56" y="-194.57" font-family="Times New Roman,serif" font-size="14.00">Tail</text>
</g>
<!-- 512 -->
<g id="node3" class="node">
<title>512</title>
<ellipse fill="none" stroke="black" cx="171" cy="-162" rx="27" ry="18"/>
<text text-anchor="middle" x="171" y="-158.3" font-family="Times New Roman,serif" font-size="14.00">512</text>
</g>
<!-- 256&#45;&#45;512 -->
<g id="edge2" class="edge">
<title>256&#45;&#45;512</title>
<path fill="none" stroke="black" d="M148.01,-207.7C151.3,-201.3 154.83,-194.44 158.12,-188.05"/>
<polygon fill="black" stroke="black" points="140.24,-215.16 147.92,-207.87 146.46,-218.37 140.24,-215.16"/>
<polygon fill="black" stroke="black" points="162.7,-179.15 162.12,-190.1 160.41,-183.59 158.12,-188.04 158.12,-188.04 158.12,-188.04 160.41,-183.59 154.12,-185.98 162.7,-179.15 162.7,-179.15"/>
<text text-anchor="middle" x="140.72" y="-176.52" font-family="Times New Roman,serif" font-size="14.00">Head</text>
<text text-anchor="middle" x="165.32" y="-212" font-family="Times New Roman,serif" font-size="14.00">Tail</text>
</g>
<!-- 127 -->
<g id="node4" class="node">
<title>127</title>
<ellipse fill="none" stroke="black" cx="27" cy="-90" rx="27" ry="18"/>
<text text-anchor="middle" x="27" y="-86.3" font-family="Times New Roman,serif" font-size="14.00">127</text>
</g>
<!-- 128&#45;&#45;127 -->
<g id="edge3" class="edge">
<title>128&#45;&#45;127</title>
<path fill="none" stroke="black" d="M76.96,-139.57C68.13,-130.99 57.99,-121.13 49.15,-112.54"/>
<polygon fill="black" stroke="black" points="81.99,-149.34 77.26,-139.86 86.87,-144.32 81.99,-149.34"/>
<polygon fill="black" stroke="black" points="41.8,-105.38 52.1,-109.13 45.38,-108.87 48.97,-112.36 48.97,-112.36 48.97,-112.36 45.38,-108.87 45.83,-115.58 41.8,-105.38 41.8,-105.38"/>
<text text-anchor="middle" x="36.4" y="-123.01" font-family="Times New Roman,serif" font-size="14.00">Head</text>
<text text-anchor="middle" x="89.82" y="-121.81" font-family="Times New Roman,serif" font-size="14.00">Tail</text>
</g>
<!-- 129 -->
<g id="node5" class="node">
<title>129</title>
<ellipse fill="none" stroke="black" cx="99" cy="-90" rx="27" ry="18"/>
<text text-anchor="middle" x="99" y="-86.3" font-family="Times New Roman,serif" font-size="14.00">129</text>
</g>
<!-- 128&#45;&#45;129 -->
<g id="edge4" class="edge">
<title>128&#45;&#45;129</title>
<path fill="none" stroke="black" d="M99,-133.67C99,-128.69 99,-123.49 99,-118.51"/>
<polygon fill="black" stroke="black" points="95.5,-143.7 99,-133.7 102.5,-143.7 95.5,-143.7"/>
<polygon fill="black" stroke="black" points="99,-108.1 103.5,-118.1 99,-113.1 99,-118.1 99,-118.1 99,-118.1 99,-113.1 94.5,-118.1 99,-108.1 99,-108.1"/>
<text text-anchor="middle" x="79.95" y="-115.4" font-family="Times New Roman,serif" font-size="14.00">Head</text>
<text text-anchor="middle" x="118.05" y="-129" font-family="Times New Roman,serif" font-size="14.00">Tail</text>
</g>
<!-- 300 -->
<g id="node6" class="node">
<title>300</title>
<ellipse fill="none" stroke="black" cx="171" cy="-90" rx="27" ry="18"/>
<text text-anchor="middle" x="171" y="-86.3" font-family="Times New Roman,serif" font-size="14.00">300</text>
</g>
<!-- 512&#45;&#45;300 -->
<g id="edge5" class="edge">
<title>512&#45;&#45;300</title>
<path fill="none" stroke="black" d="M171,-133.67C171,-128.69 171,-123.49 171,-118.51"/>
<polygon fill="black" stroke="black" points="167.5,-143.7 171,-133.7 174.5,-143.7 167.5,-143.7"/>
<polygon fill="black" stroke="black" points="171,-108.1 175.5,-118.1 171,-113.1 171,-118.1 171,-118.1 171,-118.1 171,-113.1 166.5,-118.1 171,-108.1 171,-108.1"/>
<text text-anchor="middle" x="151.95" y="-115.4" font-family="Times New Roman,serif" font-size="14.00">Head</text>
<text text-anchor="middle" x="190.05" y="-129" font-family="Times New Roman,serif" font-size="14.00">Tail</text>
</g>
<!-- 600 -->
<g id="node7" class="node">
<title>600</title>
<ellipse fill="none" stroke="black" cx="243" cy="-90" rx="27" ry="18"/>
<text text-anchor="middle" x="243" y="-86.3" font-family="Times New Roman,serif" font-size="14.00">600</text>
</g>
<!-- 512&#45;&#45;600 -->
<g id="edge6" class="edge">
<title>512&#45;&#45;600</title>
<path fill="none" stroke="black" d="M193.04,-139.57C201.87,-130.99 212.01,-121.13 220.85,-112.54"/>
<polygon fill="black" stroke="black" points="183.13,-144.32 192.74,-139.86 188.01,-149.34 183.13,-144.32"/>
<polygon fill="black" stroke="black" points="228.2,-105.38 224.17,-115.58 224.62,-108.87 221.03,-112.36 221.03,-112.36 221.03,-112.36 224.62,-108.87 217.9,-109.13 228.2,-105.38 228.2,-105.38"/>
<text text-anchor="middle" x="207.04" y="-95.69" font-family="Times New Roman,serif" font-size="14.00">Head</text>
<text text-anchor="middle" x="206.74" y="-149.13" font-family="Times New Roman,serif" font-size="14.00">Tail</text>
</g>
<!-- 290 -->
<g id="node8" class="node">
<title>290</title>
<ellipse fill="none" stroke="black" cx="135" cy="-18" rx="27" ry="18"/>
<text text-anchor="middle" x="135" y="-14.3" font-family="Times New Roman,serif" font-size="14.00">290</text>
</g>
<!-- 300&#45;&#45;290 -->
<g id="edge7" class="edge">
<title>300&#45;&#45;290</title>
<path fill="none" stroke="black" d="M157.99,-63.7C154.7,-57.3 151.17,-50.44 147.88,-44.05"/>
<polygon fill="black" stroke="black" points="159.54,-74.37 158.08,-63.87 165.76,-71.16 159.54,-74.37"/>
<polygon fill="black" stroke="black" points="143.3,-35.15 151.88,-41.98 145.59,-39.59 147.88,-44.04 147.88,-44.04 147.88,-44.04 145.59,-39.59 143.88,-46.1 143.3,-35.15 143.3,-35.15"/>
<text text-anchor="middle" x="131.39" y="-49.94" font-family="Times New Roman,serif" font-size="14.00">Head</text>
<text text-anchor="middle" x="174.56" y="-50.57" font-family="Times New Roman,serif" font-size="14.00">Tail</text>
</g>
<!-- 400 -->
<g id="node9" class="node">
<title>400</title>
<ellipse fill="none" stroke="black" cx="207" cy="-18" rx="27" ry="18"/>
<text text-anchor="middle" x="207" y="-14.3" font-family="Times New Roman,serif" font-size="14.00">400</text>
</g>
<!-- 300&#45;&#45;400 -->
<g id="edge8" class="edge">
<title>300&#45;&#45;400</title>
<path fill="none" stroke="black" d="M184.01,-63.7C187.3,-57.3 190.83,-50.44 194.12,-44.05"/>
<polygon fill="black" stroke="black" points="176.24,-71.16 183.92,-63.87 182.46,-74.37 176.24,-71.16"/>
<polygon fill="black" stroke="black" points="198.7,-35.15 198.12,-46.1 196.41,-39.59 194.12,-44.04 194.12,-44.04 194.12,-44.04 196.41,-39.59 190.12,-41.98 198.7,-35.15 198.7,-35.15"/>
<text text-anchor="middle" x="176.72" y="-32.52" font-family="Times New Roman,serif" font-size="14.00">Head</text>
<text text-anchor="middle" x="201.32" y="-68" font-family="Times New Roman,serif" font-size="14.00">Tail</text>
</g>
</g>
</svg>
