<?xml version="1.0" encoding="UTF-8" standalone="no"?>
<!DOCTYPE svg PUBLIC "-//W3C//DTD SVG 1.1//EN"
 "http://www.w3.org/Graphics/SVG/1.1/DTD/svg11.dtd">
<!-- Generated by graphviz version 5.0.0 (20220707.1540)
 -->
<!-- Pages: 1 -->
<svg width="170pt" height="188pt"
 viewBox="0.00 0.00 170.00 188.00" xmlns="http://www.w3.org/2000/svg" xmlns:xlink="http://www.w3.org/1999/xlink">
<g id="graph0" class="graph" transform="scale(1 1) rotate(0) translate(4 184)">
<polygon fill="white" stroke="transparent" points="-4,4 -4,-184 166,-184 166,4 -4,4"/>
<!-- 64 -->
<g id="node1" class="node">
<title>64</title>
<ellipse fill="none" stroke="black" cx="63" cy="-162" rx="27" ry="18"/>
<text text-anchor="middle" x="63" y="-158.3" font-family="Times New Roman,serif" font-size="14.00">64</text>
</g>
<!-- 32 -->
<g id="node2" class="node">
<title>32</title>
<ellipse fill="none" stroke="black" cx="27" cy="-90" rx="27" ry="18"/>
<text text-anchor="middle" x="27" y="-86.3" font-family="Times New Roman,serif" font-size="14.00">32</text>
</g>
<!-- 64&#45;&#45;32 -->
<g id="edge1" class="edge">
<title>64&#45;&#45;32</title>
<path fill="none" stroke="black" d="M54.65,-144.76C48.83,-133.46 41.11,-118.44 35.3,-107.15"/>
</g>
<!-- 176 -->
<g id="node3" class="node">
<title>176</title>
<ellipse fill="none" stroke="black" cx="99" cy="-90" rx="27" ry="18"/>
<text text-anchor="middle" x="99" y="-86.3" font-family="Times New Roman,serif" font-size="14.00">176</text>
</g>
<!-- 64&#45;&#45;176 -->
<g id="edge2" class="edge">
<title>64&#45;&#45;176</title>
<path fill="none" stroke="black" d="M71.35,-144.76C77.17,-133.46 84.89,-118.44 90.7,-107.15"/>
</g>
<!-- 128 -->
<g id="node4" class="node">
<title>128</title>
<ellipse fill="none" stroke="black" cx="63" cy="-18" rx="27" ry="18"/>
<text text-anchor="middle" x="63" y="-14.3" font-family="Times New Roman,serif" font-size="14.00">128</text>
</g>
<!-- 176&#45;&#45;128 -->
<g id="edge3" class="edge">
<title>176&#45;&#45;128</title>
<path fill="none" stroke="black" d="M90.65,-72.76C84.83,-61.46 77.11,-46.44 71.3,-35.15"/>
</g>
<!-- 192 -->
<g id="node5" class="node">
<title>192</title>
<ellipse fill="none" stroke="black" cx="135" cy="-18" rx="27" ry="18"/>
<text text-anchor="middle" x="135" y="-14.3" font-family="Times New Roman,serif" font-size="14.00">192</text>
</g>
<!-- 176&#45;&#45;192 -->
<g id="edge4" class="edge">
<title>176&#45;&#45;192</title>
<path fill="none" stroke="black" d="M107.35,-72.76C113.17,-61.46 120.89,-46.44 126.7,-35.15"/>
</g>
</g>
</svg>
