<?xml version="1.0" encoding="UTF-8" standalone="no"?>
<!DOCTYPE svg PUBLIC "-//W3C//DTD SVG 1.1//EN"
 "http://www.w3.org/Graphics/SVG/1.1/DTD/svg11.dtd">
<!-- Generated by graphviz version 5.0.0 (20220707.1540)
 -->
<!-- Pages: 1 -->
<svg width="134pt" height="260pt"
 viewBox="0.00 0.00 134.00 260.00" xmlns="http://www.w3.org/2000/svg" xmlns:xlink="http://www.w3.org/1999/xlink">
<g id="graph0" class="graph" transform="scale(1 1) rotate(0) translate(4 256)">
<polygon fill="white" stroke="transparent" points="-4,4 -4,-256 130,-256 130,4 -4,4"/>
<!-- 40 -->
<g id="node1" class="node">
<title>40</title>
<ellipse fill="none" stroke="black" cx="63" cy="-234" rx="27" ry="18"/>
<text text-anchor="middle" x="63" y="-230.3" font-family="Times New Roman,serif" font-size="14.00">40</text>
</g>
<!-- 30 -->
<g id="node2" class="node">
<title>30</title>
<ellipse fill="none" stroke="black" cx="27" cy="-162" rx="27" ry="18"/>
<text text-anchor="middle" x="27" y="-158.3" font-family="Times New Roman,serif" font-size="14.00">30</text>
</g>
<!-- 40&#45;&#45;30 -->
<g id="edge1" class="edge">
<title>40&#45;&#45;30</title>
<path fill="none" stroke="black" d="M54.65,-216.76C48.83,-205.46 41.11,-190.44 35.3,-179.15"/>
</g>
<!-- 65 -->
<g id="node3" class="node">
<title>65</title>
<ellipse fill="none" stroke="black" cx="99" cy="-162" rx="27" ry="18"/>
<text text-anchor="middle" x="99" y="-158.3" font-family="Times New Roman,serif" font-size="14.00">65</text>
</g>
<!-- 40&#45;&#45;65 -->
<g id="edge2" class="edge">
<title>40&#45;&#45;65</title>
<path fill="none" stroke="black" d="M71.35,-216.76C77.17,-205.46 84.89,-190.44 90.7,-179.15"/>
</g>
<!-- 3 -->
<g id="node4" class="node">
<title>3</title>
<ellipse fill="none" stroke="black" cx="27" cy="-90" rx="27" ry="18"/>
<text text-anchor="middle" x="27" y="-86.3" font-family="Times New Roman,serif" font-size="14.00">3</text>
</g>
<!-- 30&#45;&#45;3 -->
<g id="edge3" class="edge">
<title>30&#45;&#45;3</title>
<path fill="none" stroke="black" d="M27,-143.7C27,-132.85 27,-118.92 27,-108.1"/>
</g>
<!-- 12 -->
<g id="node5" class="node">
<title>12</title>
<ellipse fill="none" stroke="black" cx="27" cy="-18" rx="27" ry="18"/>
<text text-anchor="middle" x="27" y="-14.3" font-family="Times New Roman,serif" font-size="14.00">12</text>
</g>
<!-- 3&#45;&#45;12 -->
<g id="edge4" class="edge">
<title>3&#45;&#45;12</title>
<path fill="none" stroke="black" d="M27,-71.7C27,-60.85 27,-46.92 27,-36.1"/>
</g>
</g>
</svg>
