<?xml version="1.0" encoding="UTF-8" standalone="no"?>
<!DOCTYPE svg PUBLIC "-//W3C//DTD SVG 1.1//EN"
 "http://www.w3.org/Graphics/SVG/1.1/DTD/svg11.dtd">
<!-- Generated by graphviz version 5.0.0 (20220707.1540)
 -->
<!-- Pages: 1 -->
<svg width="134pt" height="188pt"
 viewBox="0.00 0.00 134.00 188.00" xmlns="http://www.w3.org/2000/svg" xmlns:xlink="http://www.w3.org/1999/xlink">
<g id="graph0" class="graph" transform="scale(1 1) rotate(0) translate(4 184)">
<polygon fill="white" stroke="transparent" points="-4,4 -4,-184 130,-184 130,4 -4,4"/>
<!-- 128 -->
<g id="node1" class="node">
<title>128</title>
<ellipse fill="none" stroke="black" cx="63" cy="-162" rx="27" ry="18"/>
<text text-anchor="middle" x="63" y="-158.3" font-family="Times New Roman,serif" font-size="14.00">128</text>
</g>
<!-- 32 -->
<g id="node2" class="node">
<title>32</title>
<ellipse fill="none" stroke="black" cx="63" cy="-90" rx="27" ry="18"/>
<text text-anchor="middle" x="63" y="-86.3" font-family="Times New Roman,serif" font-size="14.00">32</text>
</g>
<!-- 128&#45;&#45;32 -->
<g id="edge1" class="edge">
<title>128&#45;&#45;32</title>
<path fill="none" stroke="black" d="M57.16,-144.41C55.96,-133.41 55.95,-119.03 57.12,-107.96"/>
</g>
<!-- 128&#45;&#45;32 -->
<g id="edge2" class="edge">
<title>128&#45;&#45;32</title>
<path fill="none" stroke="black" d="M68.84,-144.41C70.04,-133.41 70.05,-119.03 68.88,-107.96"/>
</g>
<!-- 16 -->
<g id="node3" class="node">
<title>16</title>
<ellipse fill="none" stroke="black" cx="27" cy="-18" rx="27" ry="18"/>
<text text-anchor="middle" x="27" y="-14.3" font-family="Times New Roman,serif" font-size="14.00">16</text>
</g>
<!-- 32&#45;&#45;16 -->
<g id="edge3" class="edge">
<title>32&#45;&#45;16</title>
<path fill="none" stroke="black" d="M49.73,-74.15C42.6,-63 34.64,-47.7 29.88,-36.04"/>
</g>
<!-- 32&#45;&#45;16 -->
<g id="edge6" class="edge">
<title>32&#45;&#45;16</title>
<path fill="none" stroke="black" d="M60.16,-72.05C55.41,-60.4 47.44,-45.07 40.3,-33.89"/>
</g>
<!-- 64 -->
<g id="node4" class="node">
<title>64</title>
<ellipse fill="none" stroke="black" cx="99" cy="-18" rx="27" ry="18"/>
<text text-anchor="middle" x="99" y="-14.3" font-family="Times New Roman,serif" font-size="14.00">64</text>
</g>
<!-- 32&#45;&#45;64 -->
<g id="edge4" class="edge">
<title>32&#45;&#45;64</title>
<path fill="none" stroke="black" d="M65.84,-72.05C70.59,-60.4 78.56,-45.07 85.7,-33.89"/>
</g>
<!-- 32&#45;&#45;64 -->
<g id="edge5" class="edge">
<title>32&#45;&#45;64</title>
<path fill="none" stroke="black" d="M76.27,-74.15C83.4,-63 91.36,-47.7 96.12,-36.04"/>
</g>
</g>
</svg>
