<?xml version="1.0" encoding="UTF-8" standalone="no"?>
<!DOCTYPE svg PUBLIC "-//W3C//DTD SVG 1.1//EN"
 "http://www.w3.org/Graphics/SVG/1.1/DTD/svg11.dtd">
<!-- Generated by graphviz version 5.0.0 (20220707.1540)
 -->
<!-- Pages: 1 -->
<svg width="242pt" height="260pt"
 viewBox="0.00 0.00 242.00 260.00" xmlns="http://www.w3.org/2000/svg" xmlns:xlink="http://www.w3.org/1999/xlink">
<g id="graph0" class="graph" transform="scale(1 1) rotate(0) translate(4 256)">
<polygon fill="white" stroke="transparent" points="-4,4 -4,-256 238,-256 238,4 -4,4"/>
<!-- 249 -->
<g id="node1" class="node">
<title>249</title>
<ellipse fill="none" stroke="black" cx="135" cy="-234" rx="27" ry="18"/>
<text text-anchor="middle" x="135" y="-230.3" font-family="Times New Roman,serif" font-size="14.00">249</text>
</g>
<!-- 159 -->
<g id="node2" class="node">
<title>159</title>
<ellipse fill="none" stroke="black" cx="99" cy="-162" rx="27" ry="18"/>
<text text-anchor="middle" x="99" y="-158.3" font-family="Times New Roman,serif" font-size="14.00">159</text>
</g>
<!-- 249&#45;&#45;159 -->
<g id="edge1" class="edge">
<title>249&#45;&#45;159</title>
<path fill="none" stroke="black" d="M126.65,-216.76C120.83,-205.46 113.11,-190.44 107.3,-179.15"/>
</g>
<!-- 683 -->
<g id="node3" class="node">
<title>683</title>
<ellipse fill="none" stroke="black" cx="171" cy="-162" rx="27" ry="18"/>
<text text-anchor="middle" x="171" y="-158.3" font-family="Times New Roman,serif" font-size="14.00">683</text>
</g>
<!-- 249&#45;&#45;683 -->
<g id="edge2" class="edge">
<title>249&#45;&#45;683</title>
<path fill="none" stroke="black" d="M143.35,-216.76C149.17,-205.46 156.89,-190.44 162.7,-179.15"/>
</g>
<!-- 5 -->
<g id="node4" class="node">
<title>5</title>
<ellipse fill="none" stroke="black" cx="27" cy="-90" rx="27" ry="18"/>
<text text-anchor="middle" x="27" y="-86.3" font-family="Times New Roman,serif" font-size="14.00">5</text>
</g>
<!-- 159&#45;&#45;5 -->
<g id="edge3" class="edge">
<title>159&#45;&#45;5</title>
<path fill="none" stroke="black" d="M84.43,-146.83C72.02,-134.77 54.27,-117.51 41.8,-105.38"/>
</g>
<!-- 165 -->
<g id="node5" class="node">
<title>165</title>
<ellipse fill="none" stroke="black" cx="99" cy="-90" rx="27" ry="18"/>
<text text-anchor="middle" x="99" y="-86.3" font-family="Times New Roman,serif" font-size="14.00">165</text>
</g>
<!-- 159&#45;&#45;165 -->
<g id="edge4" class="edge">
<title>159&#45;&#45;165</title>
<path fill="none" stroke="black" d="M99,-143.7C99,-132.85 99,-118.92 99,-108.1"/>
</g>
<!-- 726 -->
<g id="node6" class="node">
<title>726</title>
<ellipse fill="none" stroke="black" cx="171" cy="-90" rx="27" ry="18"/>
<text text-anchor="middle" x="171" y="-86.3" font-family="Times New Roman,serif" font-size="14.00">726</text>
</g>
<!-- 683&#45;&#45;726 -->
<g id="edge5" class="edge">
<title>683&#45;&#45;726</title>
<path fill="none" stroke="black" d="M171,-143.7C171,-132.85 171,-118.92 171,-108.1"/>
</g>
<!-- 685 -->
<g id="node7" class="node">
<title>685</title>
<ellipse fill="none" stroke="black" cx="135" cy="-18" rx="27" ry="18"/>
<text text-anchor="middle" x="135" y="-14.3" font-family="Times New Roman,serif" font-size="14.00">685</text>
</g>
<!-- 726&#45;&#45;685 -->
<g id="edge6" class="edge">
<title>726&#45;&#45;685</title>
<path fill="none" stroke="black" d="M162.65,-72.76C156.83,-61.46 149.11,-46.44 143.3,-35.15"/>
</g>
<!-- 800 -->
<g id="node8" class="node">
<title>800</title>
<ellipse fill="none" stroke="black" cx="207" cy="-18" rx="27" ry="18"/>
<text text-anchor="middle" x="207" y="-14.3" font-family="Times New Roman,serif" font-size="14.00">800</text>
</g>
<!-- 726&#45;&#45;800 -->
<g id="edge7" class="edge">
<title>726&#45;&#45;800</title>
<path fill="none" stroke="black" d="M179.35,-72.76C185.17,-61.46 192.89,-46.44 198.7,-35.15"/>
</g>
</g>
</svg>
